<svg version="1.1" viewBox="0.0 0.0 188.9763779527559 75.59055118110236" fill="none" stroke="none" stroke-linecap="square" stroke-miterlimit="10" xmlns:xlink="http://www.w3.org/1999/xlink" xmlns="http://www.w3.org/2000/svg"><clipPath id="p.0"><path d="m0 0l188.97638 0l0 75.59055l-188.97638 0l0 -75.59055z" clip-rule="nonzero"/></clipPath><g clip-path="url(#p.0)"><path fill="#ffffff" d="m0 0l188.97638 0l0 75.59055l-188.97638 0z" fill-rule="evenodd"/><path fill="#000000" fill-opacity="0.0" d="m-24.913385 -102.0l238.80316 0l0 283.37006l-238.80316 0z" fill-rule="evenodd"/><path fill="#ffff00" d="m5.4629416 2.1850395l178.05049 0l0 46.399998l-178.05049 0l0 -46.399998z" fill-rule="nonzero"/><path fill="#000000" fill-opacity="0.0" d="m5.4629416 1.8858032l178.05049 0l0 47.12195l-178.05049 0l0 -47.12195z" fill-rule="nonzero"/><path fill="#000000" d="m18.291067 39.61754q-3.3125 0 -5.96875 -1.375q-2.640625 -1.375 -4.140625 -3.8125q-1.4843755 -2.4375 -1.4843755 -5.53125q0 -3.078125 1.4843755 -5.515625q1.5 -2.4375 4.140625 -3.8125q2.65625 -1.375 5.96875 -1.375q3.296875 0 5.75 1.375q2.453125 1.375 3.578125 3.921875l-4.6875 2.515625q-1.625 -2.859375 -4.671875 -2.859375q-2.359375 0 -3.90625 1.546875q-1.546875 1.546875 -1.546875 4.203125q0 2.671875 1.546875 4.21875q1.546875 1.546875 3.90625 1.546875q3.09375 0 4.671875 -2.859375l4.6875 2.546875q-1.125 2.484375 -3.578125 3.875q-2.453125 1.390625 -5.75 1.390625zm11.26001 -13.609375l10.937498 0l0 4.828125l-10.937498 0l0 -4.828125zm15.6869335 -15.390625l6.03125 0l0 28.6875l-6.03125 0l0 -28.6875zm32.010532 18.359375q0 0.125 -0.109375 1.625l-15.734379 0q0.421875 1.9375 2.0 3.0625q1.5937538 1.125 3.9531288 1.125q1.609375 0 2.859375 -0.484375q1.265625 -0.484375 2.359375 -1.53125l3.203125 3.484375q-2.9375 3.359375 -8.578125 3.359375q-3.5156288 0 -6.234379 -1.375q-2.703125 -1.375 -4.171875 -3.8125q-1.46875 -2.4375 -1.46875 -5.53125q0 -3.046875 1.453125 -5.5q1.453125 -2.453125 3.984375 -3.828125q2.53125 -1.375 5.656254 -1.375q3.0625 0 5.53125 1.3125q2.46875 1.3125 3.875 3.78125q1.421875 2.453125 1.421875 5.6875zm-10.78125 -6.21875q-2.046875 0 -3.4531288 1.171875q-1.390625 1.15625 -1.6875 3.15625l10.234379 0q-0.3125 -1.96875 -1.703125 -3.140625q-1.390625 -1.1875 -3.390625 -1.1875zm35.98584 -12.140625l0 28.6875l-5.765625 0l0 -2.390625q-2.234375 2.703125 -6.484375 2.703125q-2.9375 0 -5.328125 -1.3125q-2.375 -1.3125 -3.734375 -3.75q-1.34375 -2.4375 -1.34375 -5.65625q0 -3.203125 1.34375 -5.640625q1.359375 -2.4375 3.734375 -3.75q2.390625 -1.3125 5.328125 -1.3125q3.96875 0 6.21875 2.515625l0 -10.09375l6.03125 0zm-11.21875 24.046875q2.28125 0 3.78125 -1.5625q1.515625 -1.5625 1.515625 -4.203125q0 -2.625 -1.515625 -4.1875q-1.5 -1.5625 -3.78125 -1.5625q-2.3125 0 -3.828125 1.5625q-1.5 1.5625 -1.5 4.1875q0 2.640625 1.5 4.203125q1.515625 1.5625 3.828125 1.5625zm19.062622 4.953125q-1.578125 0 -2.671875 -1.078125q-1.078125 -1.09375 -1.078125 -2.71875q0 -1.65625 1.078125 -2.671875q1.09375 -1.03125 2.671875 -1.03125q1.59375 0 2.671875 1.03125q1.078125 1.015625 1.078125 2.671875q0 1.625 -1.078125 2.71875q-1.078125 1.078125 -2.671875 1.078125zm20.487297 -21.421875q3.875 0 6.25 2.328125q2.375 2.3125 2.375 6.875l0 11.90625l-6.03125 0l0 -10.984375q0 -2.46875 -1.09375 -3.6875q-1.078125 -1.21875 -3.125 -1.21875q-2.2812424 0 -3.6406174 1.421875q-1.34375 1.40625 -1.34375 4.1875l0 10.28125l-6.03125 0l0 -20.796875l5.765625 0l0 2.4375q1.1875 -1.3125 2.96875 -2.03125q1.7812424 -0.71875 3.9062424 -0.71875zm34.677826 10.78125q0 0.125 -0.109375 1.625l-15.734375 0q0.421875 1.9375 2.0 3.0625q1.59375 1.125 3.953125 1.125q1.609375 0 2.859375 -0.484375q1.265625 -0.484375 2.359375 -1.53125l3.203125 3.484375q-2.9375 3.359375 -8.578125 3.359375q-3.515625 0 -6.234375 -1.375q-2.703125 -1.375 -4.171875 -3.8125q-1.46875 -2.4375 -1.46875 -5.53125q0 -3.046875 1.453125 -5.5q1.453125 -2.453125 3.984375 -3.828125q2.53125 -1.375 5.65625 -1.375q3.0625 0 5.53125 1.3125q2.46875 1.3125 3.875 3.78125q1.421875 2.453125 1.421875 5.6875zm-10.78125 -6.21875q-2.046875 0 -3.453125 1.171875q-1.390625 1.15625 -1.6875 3.15625l10.234375 0q-0.3125 -1.96875 -1.703125 -3.140625q-1.390625 -1.1875 -3.390625 -1.1875zm28.220215 15.546875q-0.890625 0.65625 -2.1875 0.984375q-1.296875 0.328125 -2.734375 0.328125q-3.703125 0 -5.734375 -1.890625q-2.03125 -1.90625 -2.03125 -5.578125l0 -8.53125l-3.203125 0l0 -4.640625l3.203125 0l0 -5.0625l6.03125 0l0 5.0625l5.1875 0l0 4.640625l-5.1875 0l0 8.453125q0 1.3125 0.671875 2.03125q0.6875 0.71875 1.921875 0.71875q1.421875 0 2.4375 -0.765625l1.625 4.25z" fill-rule="nonzero"/><path fill="#000000" fill-opacity="0.0" d="m183.51343 1.8858032l0 0l0 47.12195l0 0l0 -47.12195z" fill-rule="nonzero"/><path fill="#000000" d="m10.585005 65.27942l-2.28125 2.328125l0 2.9375l-1.1875005 0l0 -11.203125l1.1875005 0l0 6.765625l6.5625 -6.765625l1.359375 0l-4.84375 5.078125l5.1875 6.125l-1.40625 0l-4.578125 -5.265625zm7.9072723 -5.9375l1.1875 0l0 11.203125l-1.1875 0l0 -11.203125z" fill-rule="nonzero"/><path fill="#000000" d="m31.455091 59.56067q-0.75 0 -1.125 0.40625q-0.375 0.390625 -0.375 1.171875l0 0.984375l2.593748 0l0 0.96875l-2.562498 0l0 7.453125l-1.125 0l0 -7.453125l-1.515625 0l0 -0.96875l1.515625 0l0 -1.03125q0 -1.15625 0.65625 -1.828125q0.671875 -0.671875 1.875 -0.671875q0.484375 0 0.9374981 0.140625q0.453125 0.125 0.75 0.390625l-0.390625 0.84375q-0.484375 -0.40625 -1.2343731 -0.40625zm10.220884 2.5625l0 8.421875l-1.09375 0l0 -1.53125q-0.453125 0.765625 -1.234375 1.1875q-0.78125 0.421875 -1.78125 0.421875q-1.65625 0 -2.609375 -0.921875q-0.953125 -0.921875 -0.953125 -2.6875l0 -4.890625l1.140625 0l0 4.78125q0 1.328125 0.65625 2.015625q0.65625 0.6875 1.875 0.6875q1.328125 0 2.09375 -0.8125q0.765625 -0.8125 0.765625 -2.25l0 -4.421875l1.140625 0zm-5.390625 -1.65625q-0.296875 0 -0.5 -0.1875q-0.1875 -0.203125 -0.1875 -0.5q0 -0.296875 0.1875 -0.484375q0.203125 -0.203125 0.5 -0.203125q0.265625 0 0.46875 0.203125q0.21875 0.1875 0.21875 0.484375q0 0.28125 -0.203125 0.484375q-0.203125 0.203125 -0.484375 0.203125zm2.84375 0q-0.28125 0 -0.484375 -0.203125q-0.203125 -0.203125 -0.203125 -0.484375q0 -0.296875 0.203125 -0.484375q0.21875 -0.203125 0.484375 -0.203125q0.28125 0 0.484375 0.203125q0.203125 0.1875 0.203125 0.484375q0 0.296875 -0.203125 0.5q-0.203125 0.1875 -0.484375 0.1875zm6.8148956 3.3125q0.40625 -0.84375 1.1875 -1.28125q0.796875 -0.4375 1.96875 -0.4375l0 1.109375l-0.28125 -0.015625q-1.328125 0 -2.078125 0.8125q-0.75 0.8125 -0.75 2.296875l0 4.28125l-1.140625 0l0 -8.421875l1.09375 0l0 1.65625z" fill-rule="nonzero"/><path fill="#000000" d="m64.53769 58.670044l0 11.875l-1.0937538 0l0 -1.65625q-0.515625 0.84375 -1.359375 1.296875q-0.828125 0.4375 -1.890625 0.4375q-1.171875 0 -2.140625 -0.546875q-0.953125 -0.546875 -1.5 -1.515625q-0.546875 -0.96875 -0.546875 -2.21875q0 -1.25 0.546875 -2.21875q0.546875 -0.984375 1.5 -1.515625q0.96875 -0.546875 2.140625 -0.546875q1.03125 0 1.84375 0.4375q0.828125 0.421875 1.359375 1.234375l0 -5.0625l1.1406288 0zm-4.234379 10.953125q0.875 0 1.578125 -0.40625q0.71875 -0.421875 1.125 -1.171875q0.40625 -0.75 0.40625 -1.703125q0 -0.96875 -0.40625 -1.71875q-0.40625 -0.75 -1.125 -1.15625q-0.703125 -0.40625 -1.578125 -0.40625q-0.90625 0 -1.625 0.40625q-0.703125 0.40625 -1.109375 1.15625q-0.40625 0.75 -0.40625 1.71875q0 0.953125 0.40625 1.703125q0.40625 0.75 1.109375 1.171875q0.71875 0.40625 1.625 0.40625zm14.723026 -2.9375l-7.03125 0q0.09375 1.3125 1.0 2.125q0.921875 0.8125 2.3125 0.8125q0.78125 0 1.4375 -0.28125q0.65625 -0.28125 1.140625 -0.828125l0.640625 0.734375q-0.5625 0.671875 -1.40625 1.03125q-0.84375 0.34375 -1.84375 0.34375q-1.296875 0 -2.296875 -0.546875q-1.0 -0.5625 -1.5625 -1.53125q-0.5625 -0.96875 -0.5625 -2.203125q0 -1.234375 0.53125 -2.203125q0.546875 -0.984375 1.484375 -1.53125q0.9375 -0.546875 2.09375 -0.546875q1.171875 0 2.09375 0.546875q0.9375 0.546875 1.453125 1.515625q0.53125 0.96875 0.53125 2.21875l-0.015625 0.34375zm-4.0625 -3.640625q-1.21875 0 -2.046875 0.78125q-0.8125 0.765625 -0.921875 2.015625l5.96875 0q-0.109375 -1.25 -0.9375 -2.015625q-0.828125 -0.78125 -2.0625 -0.78125zm10.695267 -0.984375q1.578125 0 2.515625 0.921875q0.9375 0.921875 0.9375 2.6875l0 4.875l-1.140625 0l0 -4.765625q0 -1.3125 -0.65625 -2.0q-0.65625 -0.6875 -1.875 -0.6875q-1.359375 0 -2.15625 0.8125q-0.78125 0.796875 -0.78125 2.21875l0 4.421875l-1.140625 0l0 -8.421875l1.09375 0l0 1.5625q0.46875 -0.765625 1.28125 -1.1875q0.828125 -0.4375 1.921875 -0.4375z" fill-rule="nonzero"/><path fill="#000000" d="m105.653175 59.34192l0 11.203125l-1.140625 0l0 -8.953125l-4.3906326 7.53125l-0.5625 0l-4.40625 -7.484375l0 8.90625l-1.125 0l0 -11.203125l0.96875 0l4.859375 8.3125l4.8281326 -8.3125l0.96875 0zm3.4050293 2.78125l1.140625 0l0 8.421875l-1.140625 0l0 -8.421875zm0.578125 -1.828125q-0.359375 0 -0.59375 -0.234375q-0.234375 -0.25 -0.234375 -0.59375q0 -0.3125 0.234375 -0.546875q0.234375 -0.25 0.59375 -0.25q0.34375 0 0.578125 0.234375q0.25 0.234375 0.25 0.546875q0 0.359375 -0.25 0.609375q-0.234375 0.234375 -0.578125 0.234375zm8.163391 9.734375q-0.3125 0.296875 -0.796875 0.453125q-0.46875 0.140625 -0.984375 0.140625q-1.171875 0 -1.8125 -0.640625q-0.640625 -0.640625 -0.640625 -1.8125l0 -5.078125l-1.515625 0l0 -0.96875l1.515625 0l0 -1.828125l1.125 0l0 1.828125l2.5625 0l0 0.96875l-2.5625 0l0 5.015625q0 0.75 0.375 1.15625q0.375 0.390625 1.09375 0.390625q0.34375 0 0.671875 -0.109375q0.328125 -0.125 0.5625 -0.328125l0.40625 0.8125zm6.272003 0q-0.3125 0.296875 -0.796875 0.453125q-0.46875 0.140625 -0.984375 0.140625q-1.171875 0 -1.8125 -0.640625q-0.640625 -0.640625 -0.640625 -1.8125l0 -5.078125l-1.515625 0l0 -0.96875l1.515625 0l0 -1.828125l1.125 0l0 1.828125l2.5625 0l0 0.96875l-2.5625 0l0 5.015625q0 0.75 0.375 1.15625q0.375 0.390625 1.09375 0.390625q0.34375 0 0.671875 -0.109375q0.328125 -0.125 0.5625 -0.328125l0.40625 0.8125zm9.082634 -3.34375l-7.0312424 0q0.09375 1.3125 1.0 2.125q0.9218674 0.8125 2.3124924 0.8125q0.78125 0 1.4375 -0.28125q0.65625 -0.28125 1.140625 -0.828125l0.640625 0.734375q-0.5625 0.671875 -1.40625 1.03125q-0.84375 0.34375 -1.84375 0.34375q-1.296875 0 -2.2968674 -0.546875q-1.0 -0.5625 -1.5625 -1.53125q-0.5625 -0.96875 -0.5625 -2.203125q0 -1.234375 0.53125 -2.203125q0.546875 -0.984375 1.484375 -1.53125q0.9375 -0.546875 2.0937424 -0.546875q1.171875 0 2.09375 0.546875q0.9375 0.546875 1.453125 1.515625q0.53125 0.96875 0.53125 2.21875l-0.015625 0.34375zm-4.0625 -3.640625q-1.2187424 0 -2.0468674 0.78125q-0.8125 0.765625 -0.921875 2.015625l5.9687424 0q-0.109375 -1.25 -0.9375 -2.015625q-0.828125 -0.78125 -2.0625 -0.78125zm6.398407 -4.375l1.140625 0l0 11.875l-1.140625 0l0 -11.875zm6.569641 11.953125q-1.03125 0 -1.96875 -0.296875q-0.9375 -0.296875 -1.453125 -0.734375l0.5 -0.90625q0.53125 0.421875 1.328125 0.6875q0.8125 0.265625 1.671875 0.265625q1.15625 0 1.703125 -0.359375q0.546875 -0.359375 0.546875 -1.015625q0 -0.46875 -0.3125 -0.734375q-0.296875 -0.265625 -0.765625 -0.390625q-0.453125 -0.140625 -1.21875 -0.28125q-1.03125 -0.1875 -1.65625 -0.375q-0.625 -0.203125 -1.0625 -0.6875q-0.4375 -0.484375 -0.4375 -1.328125q0 -1.0625 0.875 -1.734375q0.890625 -0.671875 2.453125 -0.671875q0.8125 0 1.625 0.21875q0.828125 0.21875 1.359375 0.5625l-0.5 0.921875q-1.046875 -0.71875 -2.484375 -0.71875q-1.09375 0 -1.640625 0.390625q-0.546875 0.375 -0.546875 1.0q0 0.484375 0.3125 0.765625q0.3125 0.28125 0.765625 0.421875q0.46875 0.140625 1.28125 0.28125q1.015625 0.1875 1.625 0.390625q0.609375 0.1875 1.03125 0.65625q0.4375 0.453125 0.4375 1.28125q0 1.09375 -0.921875 1.75q-0.921875 0.640625 -2.546875 0.640625zm9.99588 -0.59375q-0.3125 0.296875 -0.796875 0.453125q-0.46875 0.140625 -0.984375 0.140625q-1.171875 0 -1.8125 -0.640625q-0.640625 -0.640625 -0.640625 -1.8125l0 -5.078125l-1.515625 0l0 -0.96875l1.515625 0l0 -1.828125l1.125 0l0 1.828125l2.5625 0l0 0.96875l-2.5625 0l0 5.015625q0 0.75 0.375 1.15625q0.375 0.390625 1.09375 0.390625q0.34375 0 0.671875 -0.109375q0.328125 -0.125 0.5625 -0.328125l0.40625 0.8125zm5.0116577 -7.96875q1.640625 0 2.515625 0.828125q0.890625 0.828125 0.890625 2.4375l0 5.21875l-1.09375 0l0 -1.3125q-0.375 0.65625 -1.125 1.03125q-0.75 0.359375 -1.765625 0.359375q-1.40625 0 -2.25 -0.671875q-0.828125 -0.671875 -0.828125 -1.78125q0 -1.0625 0.78125 -1.71875q0.78125 -0.65625 2.46875 -0.65625l2.671875 0l0 -0.515625q0 -1.09375 -0.609375 -1.65625q-0.609375 -0.5625 -1.765625 -0.5625q-0.8125 0 -1.546875 0.265625q-0.734375 0.265625 -1.265625 0.71875l-0.5 -0.84375q0.640625 -0.546875 1.53125 -0.84375q0.890625 -0.296875 1.890625 -0.296875zm-0.40625 7.671875q0.96875 0 1.65625 -0.4375q0.6875 -0.453125 1.015625 -1.28125l0 -1.375l-2.640625 0q-2.15625 0 -2.15625 1.5q0 0.75 0.5625 1.171875q0.5625 0.421875 1.5625 0.421875zm11.190002 -7.671875q1.578125 0 2.515625 0.921875q0.9375 0.921875 0.9375 2.6875l0 4.875l-1.140625 0l0 -4.765625q0 -1.3125 -0.65625 -2.0q-0.65625 -0.6875 -1.875 -0.6875q-1.359375 0 -2.15625 0.8125q-0.78125 0.796875 -0.78125 2.21875l0 4.421875l-1.140625 0l0 -8.421875l1.09375 0l0 1.5625q0.46875 -0.765625 1.28125 -1.1875q0.828125 -0.4375 1.921875 -0.4375zm14.254639 -3.390625l0 11.875l-1.09375 0l0 -1.65625q-0.515625 0.84375 -1.359375 1.296875q-0.828125 0.4375 -1.890625 0.4375q-1.171875 0 -2.140625 -0.546875q-0.953125 -0.546875 -1.5 -1.515625q-0.546875 -0.96875 -0.546875 -2.21875q0 -1.25 0.546875 -2.21875q0.546875 -0.984375 1.5 -1.515625q0.96875 -0.546875 2.140625 -0.546875q1.03125 0 1.84375 0.4375q0.828125 0.421875 1.359375 1.234375l0 -5.0625l1.140625 0zm-4.234375 10.953125q0.875 0 1.578125 -0.40625q0.71875 -0.421875 1.125 -1.171875q0.40625 -0.75 0.40625 -1.703125q0 -0.96875 -0.40625 -1.71875q-0.40625 -0.75 -1.125 -1.15625q-0.703125 -0.40625 -1.578125 -0.40625q-0.90625 0 -1.625 0.40625q-0.703125 0.40625 -1.109375 1.15625q-0.40625 0.75 -0.40625 1.71875q0 0.953125 0.40625 1.703125q0.40625 0.75 1.109375 1.171875q0.71875 0.40625 1.625 0.40625z" fill-rule="nonzero"/></g></svg>